<svg size="20" role="img" viewBox="0 0 24 16" xmlns="http://www.w3.org/2000/svg" class="sc-hLseeU eHquvc"><path fill-rule="evenodd" clip-rule="evenodd" d="M4.23693e-07 8C3.38954e-07 6.4 4.57143 0 12 0C19.4286 0 24 6.4 24 8C24 9.6 19.4286 16 12 16C4.57143 16 5.08431e-07 9.6 4.23693e-07 8ZM14.2858 8.71427C15.5226 8.71427 16.5758 7.92841 16.9734 6.82878C17.084 7.24825 17.1429 7.68867 17.1429 8.14286C17.1429 10.9832 14.8403 13.2857 12 13.2857C9.15967 13.2857 6.85713 10.9832 6.85713 8.14286C6.85713 5.30254 9.15967 3 12 3C12.4542 3 12.8947 3.05888 13.3142 3.16943C12.2145 3.56703 11.4286 4.6203 11.4286 5.85712C11.4286 7.43508 12.7078 8.71427 14.2858 8.71427Z"></path></svg>