<svg size="20" role="img" viewBox="0 0 24 18" xmlns="http://www.w3.org/2000/svg" class="sc-hLseeU eHquvc"><path fill-rule="evenodd" clip-rule="evenodd" d="M15.34 1.44585C14.3045 1.16392 13.1889 1 12 1C4.57143 1 3.38954e-07 7.4 4.23693e-07 9C4.65958e-07 9.79804 1.13727 11.7902 3.19908 13.5868L6.90914 9.87672C6.8749 9.63703 6.85718 9.39201 6.85718 9.14286C6.85718 6.30254 9.15971 4 12 4C12.2492 4 12.4942 4.01772 12.7339 4.05196L15.34 1.44585ZM7.67996 11.9343C8.5962 13.3494 10.1888 14.2857 12 14.2857C14.8404 14.2857 17.1429 11.9832 17.1429 9.14286C17.1429 7.33159 16.2065 5.73902 14.7915 4.82279L17.4109 2.20336C21.5841 4.13703 24 7.83686 24 9C24 10.6 19.4286 17 12 17C9.14983 17 6.72026 16.0579 4.8081 14.8062L7.67996 11.9343Z"></path><path fill-rule="evenodd" clip-rule="evenodd" d="M3.30716 16.3072L18.7072 0.907164L18.693 0.892959L19.293 0.292969L20.7072 1.70718L16.8397 5.57464C17.0338 5.96031 17.1431 6.39599 17.1431 6.85719C17.1431 8.43514 15.8639 9.71433 14.2859 9.71433C13.8247 9.71433 13.389 9.60506 13.0034 9.41098L4.70717 17.7072L3.30716 16.3072Z"></path></svg>